<svg aria-hidden="true" style="position: absolute; width: 0; height: 0; overflow: hidden;" version="1.1" xmlns="http://www.w3.org/2000/svg" xmlns:xlink="http://www.w3.org/1999/xlink">
<defs>
<symbol id="icon-logo" viewBox="0 0 73 32">
<path fill="#009cbf" style="fill: var(--color1, #009cbf)" d="M24.781 17.518c0 0.941-0.145 1.615-0.436 2.022s-0.824 0.611-1.6 0.611h-8.655c-0.543 0-0.975-0.17-1.295-0.509-0.31-0.339-0.465-0.805-0.465-1.396v-17.804l0.175-0.189h11.709c0.049 0.233 0.078 0.456 0.087 0.669 0.010 0.204 0.015 0.393 0.015 0.567s-0.019 0.393-0.058 0.655c-0.039 0.252-0.102 0.495-0.189 0.727h-6.895c-0.213 0-0.49 0-0.829 0-0.33 0-0.664-0.005-1.004-0.015 0 0.388 0.005 0.708 0.015 0.96s0.015 0.572 0.015 0.96v4.044c0.339 0 0.669 0 0.989 0 0.33-0.010 0.601-0.015 0.815-0.015h5.469c0.049 0.204 0.087 0.427 0.116 0.669s0.044 0.446 0.044 0.611c0 0.175-0.015 0.383-0.044 0.625-0.029 0.233-0.068 0.456-0.116 0.669h-5.469c-0.213 0-0.485 0-0.815 0-0.32-0.010-0.65-0.019-0.989-0.029v4.756c0 0.262-0.005 0.504-0.015 0.727s-0.015 0.47-0.015 0.742c0.281-0.019 0.577-0.034 0.887-0.044s0.655-0.015 1.033-0.015h7.52zM27.212 16.208c0-1.105 0.242-2.012 0.727-2.72 0.495-0.708 1.159-1.232 1.993-1.571 0.844-0.349 1.789-0.524 2.836-0.524 0.407 0 0.853 0.015 1.338 0.044 0.495 0.019 0.984 0.063 1.469 0.131v-1.12c0-0.912-0.209-1.566-0.625-1.964s-0.999-0.596-1.745-0.596c-0.737 0-1.498 0.112-2.284 0.335-0.776 0.213-1.542 0.47-2.298 0.771-0.242-0.242-0.446-0.572-0.611-0.989-0.165-0.427-0.257-0.834-0.276-1.222 0.824-0.349 1.789-0.659 2.895-0.931 1.115-0.271 2.167-0.407 3.156-0.407 1.425 0 2.575 0.398 3.447 1.193s1.309 2.027 1.309 3.695v5.964c0 0.543 0.048 1.023 0.145 1.44 0.107 0.407 0.33 0.756 0.669 1.047-0.087 0.271-0.238 0.562-0.451 0.873-0.213 0.301-0.441 0.529-0.684 0.684-0.601-0.116-1.091-0.339-1.469-0.669-0.368-0.33-0.65-0.718-0.844-1.164-0.524 0.504-1.154 0.965-1.891 1.382-0.737 0.407-1.581 0.611-2.531 0.611-0.96 0-1.76-0.213-2.4-0.64-0.63-0.427-1.101-0.97-1.411-1.629s-0.465-1.333-0.465-2.022zM30.194 16.005c0 0.591 0.17 1.096 0.509 1.513 0.339 0.407 0.824 0.611 1.455 0.611 0.543 0 1.12-0.15 1.731-0.451s1.173-0.742 1.687-1.324v-2.749c-0.436-0.049-0.882-0.082-1.338-0.102-0.446-0.019-0.873-0.029-1.28-0.029-0.882 0-1.566 0.223-2.051 0.669-0.475 0.446-0.713 1.067-0.713 1.862zM43.186 3.219c0-0.669 0.111-1.154 0.335-1.455 0.223-0.31 0.655-0.465 1.295-0.465h1.135l0.175 0.189v4.291l3.607-0.044c0.087 0.378 0.131 0.742 0.131 1.091 0 0.398-0.044 0.771-0.131 1.12l-3.607-0.044v8.698c0 0.388 0.092 0.698 0.276 0.931 0.184 0.223 0.495 0.335 0.931 0.335h1.993c0.165 0.446 0.247 0.95 0.247 1.513 0 0.116-0.005 0.233-0.015 0.349 0 0.107-0.015 0.209-0.044 0.305-0.485 0.058-1.004 0.107-1.556 0.145-0.553 0.049-1.115 0.073-1.687 0.073-2.056 0-3.084-0.999-3.084-2.996v-9.338l-2.124 0.029c-0.087-0.349-0.131-0.722-0.131-1.12 0-0.349 0.044-0.713 0.131-1.091l2.124 0.029v-2.545zM51.138 19.059c0.010-0.339 0.111-0.718 0.305-1.135s0.422-0.742 0.684-0.975c0.611 0.339 1.265 0.64 1.964 0.902s1.406 0.393 2.124 0.393c0.795 0 1.421-0.17 1.876-0.509 0.465-0.339 0.703-0.776 0.713-1.309 0-0.873-0.606-1.532-1.818-1.978l-1.687-0.625c-1.008-0.368-1.876-0.878-2.604-1.527s-1.091-1.522-1.091-2.618c0-0.892 0.223-1.658 0.669-2.298 0.456-0.64 1.072-1.13 1.847-1.469 0.776-0.349 1.653-0.524 2.633-0.524 0.785 0 1.619 0.102 2.502 0.305 0.892 0.204 1.639 0.451 2.24 0.742 0.010 0.369-0.068 0.771-0.233 1.207s-0.378 0.766-0.64 0.989c-0.514-0.223-1.11-0.436-1.789-0.64s-1.377-0.305-2.095-0.305c-0.64 0-1.154 0.155-1.542 0.465-0.378 0.301-0.567 0.708-0.567 1.222 0 0.407 0.145 0.747 0.436 1.018 0.301 0.271 0.756 0.519 1.367 0.742l1.789 0.655c1.086 0.398 1.973 0.95 2.662 1.658 0.688 0.698 1.033 1.605 1.033 2.72 0 1.348-0.524 2.41-1.571 3.185-1.038 0.766-2.415 1.149-4.131 1.149-1.028 0-1.973-0.145-2.836-0.436s-1.61-0.625-2.24-1.004z"></path>
<path fill="#000" style="fill: var(--color2, #000)" d="M15.86 27.551c0 0.401-0.108 0.742-0.323 1.021-0.215 0.276-0.481 0.465-0.799 0.567 0.145 0.052 0.269 0.147 0.371 0.284 0.105 0.134 0.188 0.287 0.249 0.458l0.384 1.021c0.064 0.172 0.125 0.304 0.183 0.397 0.061 0.093 0.131 0.17 0.209 0.231-0.061 0.093-0.153 0.164-0.275 0.214-0.119 0.049-0.237 0.074-0.353 0.074-0.175 0-0.303-0.048-0.384-0.144s-0.157-0.237-0.227-0.423l-0.436-1.183c-0.073-0.201-0.17-0.368-0.292-0.502-0.122-0.137-0.319-0.205-0.589-0.205h-0.711v2.396c-0.073 0.015-0.151 0.023-0.236 0.026-0.081 0.006-0.159 0.009-0.231 0.009-0.067 0-0.144-0.003-0.231-0.009-0.084-0.003-0.16-0.012-0.227-0.026v-5.913l0.057-0.052c0.329-0.006 0.65-0.012 0.964-0.017 0.314-0.009 0.62-0.013 0.916-0.013 0.605 0 1.087 0.153 1.444 0.458s0.537 0.749 0.537 1.331zM12.866 26.491v2.129c0.169-0.006 0.342-0.010 0.519-0.013s0.326-0.004 0.445-0.004c0.285 0 0.505-0.052 0.659-0.157s0.26-0.237 0.319-0.397c0.058-0.163 0.087-0.329 0.087-0.497 0-0.177-0.029-0.346-0.087-0.506s-0.164-0.291-0.319-0.393c-0.154-0.102-0.374-0.153-0.659-0.153-0.125 0-0.281 0-0.467 0-0.183-0.003-0.349-0.006-0.497-0.009zM20.918 30.976c0 0.282-0.044 0.484-0.131 0.607s-0.247 0.183-0.48 0.183h-2.596c-0.163 0-0.292-0.051-0.388-0.153-0.093-0.102-0.14-0.241-0.14-0.419v-5.341l0.052-0.057h3.513c0.015 0.070 0.023 0.137 0.026 0.201 0.003 0.061 0.004 0.118 0.004 0.17s-0.006 0.118-0.017 0.196c-0.012 0.076-0.031 0.148-0.057 0.218h-2.068c-0.064 0-0.147 0-0.249 0-0.099 0-0.199-0.001-0.301-0.004 0 0.116 0.001 0.212 0.004 0.288s0.004 0.172 0.004 0.288v1.213c0.102 0 0.201 0 0.297 0 0.099-0.003 0.18-0.004 0.244-0.004h1.641c0.015 0.061 0.026 0.128 0.035 0.201s0.013 0.134 0.013 0.183c0 0.052-0.004 0.115-0.013 0.188-0.009 0.070-0.020 0.137-0.035 0.201h-1.641c-0.064 0-0.145 0-0.244 0-0.096-0.003-0.195-0.006-0.297-0.009v1.427c0 0.079-0.001 0.151-0.004 0.218s-0.004 0.141-0.004 0.223c0.084-0.006 0.173-0.010 0.266-0.013s0.196-0.004 0.31-0.004h2.256zM21.602 31.221c0.012-0.137 0.055-0.271 0.131-0.401 0.079-0.134 0.164-0.239 0.257-0.314 0.253 0.166 0.534 0.305 0.842 0.419s0.612 0.17 0.912 0.17c0.352 0 0.625-0.076 0.82-0.227 0.195-0.154 0.292-0.352 0.292-0.593 0-0.204-0.068-0.384-0.205-0.541-0.137-0.16-0.333-0.294-0.589-0.401l-1.052-0.441c-0.369-0.154-0.663-0.352-0.881-0.593-0.215-0.244-0.323-0.553-0.323-0.925 0-0.317 0.083-0.602 0.249-0.855 0.169-0.256 0.401-0.458 0.698-0.607 0.297-0.151 0.64-0.227 1.030-0.227 0.364 0 0.705 0.047 1.025 0.14s0.593 0.196 0.82 0.31c-0.003 0.134-0.036 0.268-0.1 0.401-0.061 0.131-0.14 0.24-0.236 0.327-0.23-0.113-0.48-0.209-0.751-0.288-0.271-0.081-0.518-0.122-0.742-0.122-0.326 0-0.582 0.079-0.768 0.236-0.183 0.157-0.275 0.351-0.275 0.58 0 0.192 0.067 0.349 0.201 0.471s0.308 0.228 0.524 0.319l1.043 0.432c0.372 0.154 0.682 0.367 0.929 0.637 0.25 0.271 0.375 0.602 0.375 0.995 0 0.335-0.079 0.634-0.236 0.899-0.154 0.262-0.39 0.47-0.707 0.624-0.317 0.151-0.716 0.227-1.196 0.227-0.364 0-0.73-0.058-1.1-0.175s-0.7-0.275-0.991-0.476zM27.649 27.215c0-0.116 0-0.223 0-0.319s0-0.205 0-0.327c-0.061 0-0.145 0.001-0.253 0.004s-0.192 0.004-0.253 0.004h-1.034c-0.015-0.067-0.025-0.134-0.031-0.201s-0.009-0.129-0.009-0.188c0-0.058 0.003-0.121 0.009-0.188s0.016-0.135 0.031-0.205h4.010c0.035 0.113 0.052 0.236 0.052 0.367 0 0.151-0.042 0.259-0.127 0.323-0.084 0.061-0.215 0.092-0.393 0.092h-0.572c-0.058 0-0.143-0.001-0.253-0.004-0.108-0.003-0.191-0.004-0.249-0.004h-0.004c0 0.122 0 0.231 0 0.327 0.003 0.096 0.004 0.202 0.004 0.319v4.543c-0.076 0.015-0.156 0.023-0.24 0.026-0.081 0.006-0.157 0.009-0.227 0.009s-0.147-0.003-0.231-0.009c-0.081-0.003-0.159-0.012-0.231-0.026v-4.543zM31.739 30.318c-0.032 0-0.106 0-0.223 0-0.113-0.003-0.208-0.006-0.284-0.009l-0.463 1.457c-0.058 0.015-0.122 0.023-0.192 0.026-0.070 0.006-0.14 0.009-0.209 0.009-0.172 0-0.323-0.020-0.454-0.061l-0.026-0.044 1.968-5.9c0.073-0.012 0.161-0.020 0.266-0.026s0.196-0.009 0.275-0.009c0.073 0 0.161 0.003 0.266 0.009s0.189 0.016 0.253 0.031l1.959 5.9c-0.067 0.041-0.15 0.070-0.249 0.087-0.096 0.020-0.193 0.031-0.292 0.031-0.148 0-0.263-0.033-0.345-0.1s-0.151-0.198-0.209-0.393l-0.323-1.017c-0.076 0.003-0.173 0.006-0.292 0.009-0.119 0-0.195 0-0.227 0h-1.2zM31.974 27.979l-0.502 1.575c0.067 0 0.148-0.001 0.244-0.004 0.099-0.003 0.166-0.004 0.201-0.004h0.868c0.032 0 0.093 0.001 0.183 0.004 0.093 0 0.176 0.001 0.249 0.004l-0.401-1.261c-0.079-0.253-0.16-0.521-0.244-0.803-0.081-0.285-0.151-0.543-0.209-0.772h-0.048c-0.044 0.195-0.1 0.415-0.17 0.659-0.067 0.241-0.124 0.442-0.17 0.602zM40.010 29.663c0 0.721-0.201 1.27-0.602 1.645s-0.937 0.563-1.606 0.563c-0.666 0-1.2-0.188-1.601-0.563-0.399-0.375-0.598-0.924-0.598-1.645v-3.849l0.057-0.057h0.353c0.189 0 0.323 0.048 0.401 0.144s0.118 0.247 0.118 0.454v3.308c0 0.972 0.425 1.457 1.274 1.457s1.274-0.486 1.274-1.457v-3.866c0.070-0.015 0.144-0.023 0.223-0.026 0.081-0.006 0.159-0.009 0.231-0.009 0.070 0 0.148 0.003 0.236 0.009 0.090 0.003 0.17 0.012 0.24 0.026v3.866zM45.434 27.551c0 0.401-0.108 0.742-0.323 1.021-0.215 0.276-0.481 0.465-0.799 0.567 0.145 0.052 0.269 0.147 0.371 0.284 0.105 0.134 0.188 0.287 0.249 0.458l0.384 1.021c0.064 0.172 0.125 0.304 0.183 0.397 0.061 0.093 0.131 0.17 0.209 0.231-0.061 0.093-0.153 0.164-0.275 0.214-0.119 0.049-0.237 0.074-0.353 0.074-0.175 0-0.303-0.048-0.384-0.144s-0.157-0.237-0.227-0.423l-0.436-1.183c-0.073-0.201-0.17-0.368-0.292-0.502-0.122-0.137-0.319-0.205-0.589-0.205h-0.711v2.396c-0.073 0.015-0.151 0.023-0.236 0.026-0.081 0.006-0.159 0.009-0.231 0.009-0.067 0-0.144-0.003-0.231-0.009-0.084-0.003-0.16-0.012-0.227-0.026v-5.913l0.057-0.052c0.329-0.006 0.65-0.012 0.964-0.017 0.314-0.009 0.62-0.013 0.916-0.013 0.605 0 1.087 0.153 1.444 0.458s0.537 0.749 0.537 1.331zM42.44 26.491v2.129c0.169-0.006 0.342-0.010 0.519-0.013s0.326-0.004 0.445-0.004c0.285 0 0.505-0.052 0.659-0.157s0.26-0.237 0.319-0.397c0.058-0.163 0.087-0.329 0.087-0.497 0-0.177-0.029-0.346-0.087-0.506s-0.164-0.291-0.319-0.393c-0.154-0.102-0.374-0.153-0.659-0.153-0.125 0-0.281 0-0.467 0-0.183-0.003-0.349-0.006-0.497-0.009zM47.992 30.318c-0.032 0-0.106 0-0.223 0-0.113-0.003-0.208-0.006-0.284-0.009l-0.463 1.457c-0.058 0.015-0.122 0.023-0.192 0.026-0.070 0.006-0.14 0.009-0.209 0.009-0.172 0-0.323-0.020-0.454-0.061l-0.026-0.044 1.968-5.9c0.073-0.012 0.161-0.020 0.266-0.026s0.197-0.009 0.275-0.009c0.073 0 0.161 0.003 0.266 0.009s0.189 0.016 0.253 0.031l1.959 5.9c-0.067 0.041-0.15 0.070-0.249 0.087-0.096 0.020-0.193 0.031-0.292 0.031-0.148 0-0.263-0.033-0.345-0.1s-0.151-0.198-0.209-0.393l-0.323-1.017c-0.076 0.003-0.173 0.006-0.292 0.009-0.119 0-0.195 0-0.227 0h-1.2zM48.227 27.979l-0.502 1.575c0.067 0 0.148-0.001 0.244-0.004 0.099-0.003 0.166-0.004 0.201-0.004h0.869c0.032 0 0.093 0.001 0.183 0.004 0.093 0 0.176 0.001 0.249 0.004l-0.401-1.261c-0.079-0.253-0.16-0.521-0.244-0.803-0.081-0.285-0.151-0.543-0.209-0.772h-0.048c-0.044 0.195-0.101 0.415-0.17 0.659-0.067 0.241-0.124 0.442-0.17 0.602zM53.471 28.096c-0.108-0.215-0.208-0.425-0.301-0.628-0.090-0.204-0.176-0.397-0.257-0.58l-0.031 0.004c0.012 0.204 0.023 0.431 0.035 0.681 0.012 0.247 0.020 0.499 0.026 0.755 0.009 0.253 0.013 0.487 0.013 0.703v2.727c-0.079 0.015-0.154 0.023-0.227 0.026-0.073 0.006-0.14 0.009-0.201 0.009-0.058 0-0.127-0.003-0.205-0.009-0.079-0.003-0.156-0.012-0.231-0.026v-5.952c0.076-0.015 0.169-0.025 0.279-0.031 0.113-0.009 0.205-0.013 0.275-0.013 0.073 0 0.16 0.003 0.262 0.009 0.105 0.003 0.202 0.012 0.292 0.026l1.846 3.657c0.111 0.23 0.214 0.454 0.31 0.672 0.099 0.215 0.191 0.412 0.275 0.589l0.031-0.004c-0.017-0.233-0.032-0.48-0.044-0.742-0.009-0.265-0.016-0.522-0.022-0.772-0.006-0.253-0.009-0.48-0.009-0.681v-2.177c0-0.204 0.035-0.351 0.105-0.441 0.073-0.093 0.205-0.14 0.397-0.14h0.301l0.057 0.052v5.939c-0.076 0.015-0.167 0.025-0.275 0.031-0.108 0.009-0.204 0.013-0.288 0.013-0.087 0-0.179-0.003-0.275-0.009-0.096-0.003-0.191-0.012-0.284-0.026l-1.855-3.661zM58.927 27.215c0-0.116 0-0.223 0-0.319s0-0.205 0-0.327c-0.061 0-0.145 0.001-0.253 0.004s-0.192 0.004-0.253 0.004h-1.034c-0.015-0.067-0.025-0.134-0.031-0.201s-0.009-0.129-0.009-0.188c0-0.058 0.003-0.121 0.009-0.188s0.016-0.135 0.031-0.205h4.010c0.035 0.113 0.052 0.236 0.052 0.367 0 0.151-0.042 0.259-0.127 0.323-0.084 0.061-0.215 0.092-0.393 0.092h-0.572c-0.058 0-0.143-0.001-0.253-0.004-0.108-0.003-0.191-0.004-0.249-0.004h-0.004c0 0.122 0 0.231 0 0.327 0.003 0.096 0.004 0.202 0.004 0.319v4.543c-0.076 0.015-0.156 0.023-0.24 0.026-0.081 0.006-0.157 0.009-0.227 0.009s-0.147-0.003-0.231-0.009c-0.081-0.003-0.159-0.012-0.231-0.026v-4.543z"></path>
<path fill="#e78200" style="fill: var(--color3, #e78200)" d="M2.424 12.364c1.339 0 2.424-1.085 2.424-2.424s-1.085-2.424-2.424-2.424c-1.339 0-2.424 1.085-2.424 2.424s1.085 2.424 2.424 2.424z"></path>
<path fill="#e78200" style="fill: var(--color3, #e78200)" d="M70.303 12.364c1.339 0 2.424-1.085 2.424-2.424s-1.086-2.424-2.424-2.424c-1.339 0-2.424 1.085-2.424 2.424s1.086 2.424 2.424 2.424z"></path>
</symbol>
<symbol id="facebook" viewBox="0 0 32 32">
<path d="M29 0h-26c-1.65 0-3 1.35-3 3v26c0 1.65 1.35 3 3 3h13v-14h-4v-4h4v-2c0-3.306 2.694-6 6-6h4v4h-4c-1.1 0-2 0.9-2 2v2h6l-1 4h-5v14h9c1.65 0 3-1.35 3-3v-26c0-1.65-1.35-3-3-3z"></path>
</symbol>
<symbol id="instagram" viewBox="0 0 32 32">
<path d="M16 2.881c4.275 0 4.781 0.019 6.462 0.094 1.563 0.069 2.406 0.331 2.969 0.55 0.744 0.288 1.281 0.638 1.837 1.194 0.563 0.563 0.906 1.094 1.2 1.838 0.219 0.563 0.481 1.412 0.55 2.969 0.075 1.688 0.094 2.194 0.094 6.463s-0.019 4.781-0.094 6.463c-0.069 1.563-0.331 2.406-0.55 2.969-0.288 0.744-0.637 1.281-1.194 1.837-0.563 0.563-1.094 0.906-1.837 1.2-0.563 0.219-1.413 0.481-2.969 0.55-1.688 0.075-2.194 0.094-6.463 0.094s-4.781-0.019-6.463-0.094c-1.563-0.069-2.406-0.331-2.969-0.55-0.744-0.288-1.281-0.637-1.838-1.194-0.563-0.563-0.906-1.094-1.2-1.837-0.219-0.563-0.481-1.413-0.55-2.969-0.075-1.688-0.094-2.194-0.094-6.463s0.019-4.781 0.094-6.463c0.069-1.563 0.331-2.406 0.55-2.969 0.288-0.744 0.638-1.281 1.194-1.838 0.563-0.563 1.094-0.906 1.838-1.2 0.563-0.219 1.412-0.481 2.969-0.55 1.681-0.075 2.188-0.094 6.463-0.094zM16 0c-4.344 0-4.887 0.019-6.594 0.094-1.7 0.075-2.869 0.35-3.881 0.744-1.056 0.412-1.95 0.956-2.837 1.85-0.894 0.888-1.438 1.781-1.85 2.831-0.394 1.019-0.669 2.181-0.744 3.881-0.075 1.713-0.094 2.256-0.094 6.6s0.019 4.887 0.094 6.594c0.075 1.7 0.35 2.869 0.744 3.881 0.413 1.056 0.956 1.95 1.85 2.837 0.887 0.887 1.781 1.438 2.831 1.844 1.019 0.394 2.181 0.669 3.881 0.744 1.706 0.075 2.25 0.094 6.594 0.094s4.888-0.019 6.594-0.094c1.7-0.075 2.869-0.35 3.881-0.744 1.050-0.406 1.944-0.956 2.831-1.844s1.438-1.781 1.844-2.831c0.394-1.019 0.669-2.181 0.744-3.881 0.075-1.706 0.094-2.25 0.094-6.594s-0.019-4.887-0.094-6.594c-0.075-1.7-0.35-2.869-0.744-3.881-0.394-1.063-0.938-1.956-1.831-2.844-0.887-0.887-1.781-1.438-2.831-1.844-1.019-0.394-2.181-0.669-3.881-0.744-1.712-0.081-2.256-0.1-6.6-0.1v0z"></path>
<path d="M16 7.781c-4.537 0-8.219 3.681-8.219 8.219s3.681 8.219 8.219 8.219 8.219-3.681 8.219-8.219c0-4.537-3.681-8.219-8.219-8.219zM16 21.331c-2.944 0-5.331-2.387-5.331-5.331s2.387-5.331 5.331-5.331c2.944 0 5.331 2.387 5.331 5.331s-2.387 5.331-5.331 5.331z"></path>
<path d="M26.462 7.456c0 1.060-0.859 1.919-1.919 1.919s-1.919-0.859-1.919-1.919c0-1.060 0.859-1.919 1.919-1.919s1.919 0.859 1.919 1.919z"></path>
</symbol>
<symbol id="twitter" viewBox="0 0 32 32">
<path d="M32 7.075c-1.175 0.525-2.444 0.875-3.769 1.031 1.356-0.813 2.394-2.1 2.887-3.631-1.269 0.75-2.675 1.3-4.169 1.594-1.2-1.275-2.906-2.069-4.794-2.069-3.625 0-6.563 2.938-6.563 6.563 0 0.512 0.056 1.012 0.169 1.494-5.456-0.275-10.294-2.888-13.531-6.862-0.563 0.969-0.887 2.1-0.887 3.3 0 2.275 1.156 4.287 2.919 5.463-1.075-0.031-2.087-0.331-2.975-0.819 0 0.025 0 0.056 0 0.081 0 3.181 2.263 5.838 5.269 6.437-0.55 0.15-1.131 0.231-1.731 0.231-0.425 0-0.831-0.044-1.237-0.119 0.838 2.606 3.263 4.506 6.131 4.563-2.25 1.762-5.075 2.813-8.156 2.813-0.531 0-1.050-0.031-1.569-0.094 2.913 1.869 6.362 2.95 10.069 2.95 12.075 0 18.681-10.006 18.681-18.681 0-0.287-0.006-0.569-0.019-0.85 1.281-0.919 2.394-2.075 3.275-3.394z"></path>
</symbol>
</defs>
</svg>
